<svg height="471pt" viewBox="0 -50 471.04763 471" width="471pt" xmlns="http://www.w3.org/2000/svg"><path d="m397.675781 71.632812c-.019531-.042968-.042969-.078124-.058593-.121093-.15625-.390625-.339844-.773438-.546876-1.144531-.035156-.0625-.078124-.121094-.113281-.1875-.1875-.316407-.394531-.621094-.617187-.914063-.054688-.078125-.109375-.152344-.167969-.226563-.269531-.339843-.554687-.65625-.863281-.957031-.023438-.023437-.050782-.042969-.074219-.066406-.289063-.269531-.59375-.527344-.914063-.761719-.074218-.054687-.148437-.109375-.226562-.164062-.34375-.242188-.699219-.464844-1.070312-.660156-.007813-.007813-.019532-.011719-.027344-.019532-.308594-.160156-.628906-.304687-.949219-.433594-.074219-.027343-.144531-.046874-.21875-.074218-.109375-.039063-.21875-.074219-.332031-.113282-.335938-.113281-.679688-.207031-1.027344-.28125-.074219-.015624-.148438-.039062-.226562-.050781-.433594-.085937-.871094-.140625-1.3125-.164062-.023438 0-.042969-.007813-.066407-.007813l-107.101562-5.390625-64.136719-57.324219c-3.109375-2.78125-7.621094-3.339843-11.3125-1.402343-.488281.257812-48.285156 25.28125-72.027344 31.292969l-112.308594 3.265624c-5.179687.152344-9.386718 4.238282-9.691406 9.410157l-12.269531 209.488281c-.179687 3.078125 1.070313 6.066406 3.386719 8.097656l87.695312 76.945313c.011719.015625.03125.023437.042969.035156.015625.011719.039063.039063.058594.054687.308593.261719.628906.5.964843.71875.070313.046876.136719.089844.210938.132813.75.476563 1.566406.847656 2.417969 1.105469.046875.015625.097656.035156.148437.046875.417969.121093.84375.210937 1.273438.277343.03125 0 .058594.011719.089844.019532l210.820312 29.539062.070312.011719.074219.007813h.042969c.445312.066406.898438.097656 1.347656.101562.308594 0 .621094-.019531.929688-.046875h.03125c.285156-.027344.570312-.066406.855468-.121094l.046876-.007812 106.710937-20.242188c.347656-.066406.691406-.152343 1.03125-.253906.101563-.03125.203125-.070313.300781-.105469.191406-.066406.382813-.125.570313-.199218.035156-.015626.0625-.03125.09375-.046876.140625-.054687.273437-.121093.402343-.1875.1875-.085937.375-.175781.554688-.273437.113281-.0625.222656-.132813.335938-.199219.191406-.113281.382812-.230468.5625-.359375.101562-.066406.191406-.136719.289062-.210937.183594-.136719.363281-.28125.539062-.429688.085938-.078125.171876-.15625.257813-.234375.167969-.15625.332031-.320312.492187-.488281.082032-.085938.160157-.175781.238282-.265625.148437-.171875.292968-.347656.429687-.527344.074219-.101562.148438-.195312.21875-.292969.132813-.191406.257813-.386718.375-.585937.046875-.074219.101563-.140625.140625-.21875l45.671875-80.191406c1.492188-2.621094 1.722657-5.777344.625-8.589844zm-82.550781 278.675782-37.683594-102.722656 66.785156-55.050782 57.304688 141.382813zm-185.5-225.214844 92.820312 48.15625-59.710937 67.480469-69.191406-20.386719zm43.898438 133.613281 61.28125-69.253906 58.71875 160.042969-176.390626-24.71875zm166.5-88.636719-69.882813 57.609376-21.015625-57.300782 35.296875-90.332031 89.5 4.5zm-204.097657-117.648437c.679688-.019531 1.359375-.109375 2.023438-.265625 20.761719-4.9375 56.976562-22.734375 71.472656-30.09375l56.464844 50.472656-32.726563 83.742188-103.929687-53.917969-75.546875-47.546875zm-104.726562 11.871094 80.808593 50.859375-40.988281 108.199218c-.988281 2.601563-.84375 5.5.394531 7.992188 1.238282 2.492188 3.460938 4.355469 6.128907 5.140625l70.851562 20.875-51.726562 60.597656-76.398438-67.035156zm385.699219 254.300781-57.753907-142.484375 29.148438-73.535156 61.707031 157.902343zm0 0"/></svg>